<?xml version="1.0" encoding="UTF-8"?>
<svg viewBox="0 0 220 160" xmlns="http://www.w3.org/2000/svg">
    <title>InternConnect Graduation Cap Logo</title>
    <defs>
        <linearGradient id="capTopGradient" x1="0" y1="0" x2="0" y2="1">
            <stop offset="0%" stop-color="#1e293b"/>
            <stop offset="100%" stop-color="#0f172a"/>
        </linearGradient>
        <linearGradient id="capBandGradient" x1="0" y1="0" x2="1" y2="1">
            <stop offset="0%" stop-color="#334155"/>
            <stop offset="100%" stop-color="#0f172a"/>
        </linearGradient>
        <linearGradient id="tasselGradient" x1="0" y1="0" x2="0" y2="1">
            <stop offset="0%" stop-color="#fbbf24"/>
            <stop offset="100%" stop-color="#f59e0b"/>
        </linearGradient>
    </defs>
    <ellipse cx="110" cy="130" rx="70" ry="10" fill="rgba(0,0,0,0.15)" />
    <polygon points="110,20 25,60 110,100 195,60" fill="url(#capTopGradient)" stroke="#0f172a" stroke-width="3" stroke-linejoin="round"/>
    <path d="M50 85 Q110 115, 170 85 L170 100 Q110 130, 50 100 Z" fill="url(#capBandGradient)" stroke="#0f172a" stroke-width="2" stroke-linejoin="round"/>
    <path d="M70 55 C60 70, 50 80, 40 95" stroke="url(#tasselGradient)" stroke-width="5" stroke-linecap="round" fill="none"/>
    <circle cx="70" cy="55" r="6" fill="url(#tasselGradient)" stroke="#d97706" stroke-width="1"/>
    <line x1="40" y1="95" x2="35" y2="110" stroke="url(#tasselGradient)" stroke-width="3" stroke-linecap="round"/>
    <line x1="40" y1="95" x2="45" y2="110" stroke="url(#tasselGradient)" stroke-width="3" stroke-linecap="round"/>
    <circle cx="40" cy="95" r="5" fill="url(#tasselGradient)" stroke="#d97706" stroke-width="1"/>
    <circle cx="150" cy="50" r="4" fill="rgba(255,255,255,0.2)"/>
</svg>